<?xml version="1.0" encoding="utf-8"?>
<!-- Generator: Adobe Illustrator 26.0.3, SVG Export Plug-In . SVG Version: 6.00 Build 0)  -->
<svg version="1.0" id="Layer_1" xmlns="http://www.w3.org/2000/svg" xmlns:xlink="http://www.w3.org/1999/xlink" x="0px" y="0px"
	 viewBox="0 0 328.5 257.4" style="enable-background:new 0 0 328.5 257.4;" xml:space="preserve">
<style type="text/css">
	.st0{fill-rule:evenodd;clip-rule:evenodd;fill:#D0AA66;}
	.st1{fill-rule:evenodd;clip-rule:evenodd;fill:#FDFDFD;}
	.st2{fill-rule:evenodd;clip-rule:evenodd;fill:#002D5D;}
	.st3{fill:#FDFDFD;}
	.st4{fill:none;stroke:#D0AA66;stroke-width:0.21;stroke-miterlimit:2;}
	.st5{fill:#D0AA66;}
	.st6{fill:#002D5D;}
</style>
<path class="st0" d="M231.7,164.2c0.3-4.1-8.5-6.4-15.7-2.2c-8.4,7.1,8.4,8.9,11.5,3.7c0.9-1.9-0.7-2.3-2.1-1.3
	c-2.6,1.7-8.8,2.3-8.2-0.3c1.8-2.3,8.7-2.2,9.9-1.5c8.9,4.4-9,10.1-13.3,7.4c-10.9-3.8-15.4-1.5-15.2-1.1c-0.1,1.7,1.2,1.6,4.3,1.4
	c2.8-0.2,5.6,0.3,8.1,1.5c0,3.4,0.3,7.5,0.3,10.9c7.2,0.4,13.5-0.6,19-4.5C230.4,173.9,232.2,165.3,231.7,164.2z"/>
<path class="st0" d="M118.5,174c0.1-2.3,5.5-2.5,12.4-2.1c0.4,1.4,0,2.4,0.4,4.6c22.4,3.6,45,3.9,66.5,0.1l0.5-5.2
	c3.7,0,6.5-0.4,11.7,1.2v13.6c-29.9,8.1-61.5,8.3-91.5,0.3L118.5,174z"/>
<path class="st1" d="M207.8,173.8c-2.7-0.6-5.4-0.9-8.2-0.9c-0.2,1.1-0.2,1.5-0.4,2.6C202.2,175.7,206,175.2,207.8,173.8z"/>
<path class="st2" d="M202.1,183.6l1-0.3c0.3,0.7,0.7,1.1,1.4,0.9c0.3,0,0.5-0.2,0.7-0.4c0.1-0.2,0.2-0.4,0.1-0.6
	c0-0.1-0.1-0.2-0.2-0.3c-0.1-0.1-0.2-0.2-0.3-0.2c-0.1,0-0.5-0.1-1-0.1c-0.4,0-0.7-0.1-1.1-0.2c-0.2-0.1-0.5-0.3-0.6-0.5
	c-0.2-0.2-0.3-0.5-0.3-0.8c-0.1-0.3-0.1-0.6,0-0.9c0.1-0.3,0.3-0.5,0.5-0.7c0.3-0.2,0.6-0.3,1-0.4c0.5-0.1,1-0.1,1.5,0.2
	c0.4,0.3,0.7,0.7,0.8,1.2l-1,0.2c-0.1-0.3-0.2-0.5-0.4-0.6c-0.4-0.2-0.9-0.1-1.3,0.2c-0.1,0.1-0.2,0.3-0.1,0.5
	c0,0.2,0.1,0.3,0.3,0.4c0.3,0.1,0.7,0.2,1,0.2c0.4,0,0.8,0.1,1.2,0.2c0.3,0.1,0.5,0.3,0.6,0.5c0.2,0.3,0.3,0.6,0.4,0.9
	c0.1,0.5,0,1-0.2,1.4c-0.4,0.5-0.9,0.8-1.5,0.8c-1.1,0.3-2.2-0.3-2.5-1.4C202.1,183.8,202.1,183.7,202.1,183.6z M196.4,180.3l1-0.2
	l0.6,3.3c0.1,0.5,0.2,0.8,0.2,1c0.1,0.2,0.2,0.4,0.4,0.6c0.4,0.2,0.9,0.2,1.3-0.1c0.1-0.1,0.2-0.3,0.2-0.5c0-0.4,0-0.8-0.1-1.2
	l-0.6-3.4l1-0.2l0.6,3.2c0.1,0.6,0.2,1.2,0.2,1.8c0,0.4-0.2,0.7-0.4,1c-0.3,0.3-0.7,0.5-1.2,0.6c-0.4,0.1-0.9,0.1-1.3-0.1
	c-0.3-0.1-0.6-0.4-0.8-0.7c-0.3-0.6-0.5-1.2-0.5-1.8L196.4,180.3z M191.5,187.2l-0.8-6.1l1.6-0.2l1.5,4l0.4-4.3l1.6-0.2l0.8,6.1
	l-1,0.1l-0.6-4.8l-0.4,4.9l-1,0.1l-1.6-4.7l0.6,4.8L191.5,187.2z M188.8,185.2l-1-2.2l-0.5,2.3L188.8,185.2z M191,187.4l-1.1,0.1
	l-0.6-1.3l-2.1,0.2l-0.3,1.4l-1.1,0.1l1.3-6.3l1.1-0.1L191,187.4z M181.7,183.1l0.4,4l0.8-0.1c0.2,0,0.5-0.1,0.7-0.1
	c0.1-0.1,0.3-0.2,0.4-0.3c0.1-0.2,0.2-0.4,0.2-0.6c0.1-0.7,0-1.4-0.2-2.1c-0.1-0.2-0.2-0.4-0.4-0.6c-0.1-0.1-0.3-0.2-0.5-0.2
	c-0.3,0-0.6,0-0.8,0L181.7,183.1z M180.5,182.1l1.9-0.2c0.4,0,0.7,0,1.1,0.1c0.3,0.1,0.5,0.3,0.7,0.5c0.3,0.3,0.5,0.6,0.6,0.9
	c0.2,0.5,0.3,1,0.3,1.5c0,0.5,0,0.9-0.1,1.4c-0.1,0.4-0.2,0.7-0.4,1c-0.2,0.2-0.4,0.4-0.6,0.6c-0.3,0.2-0.7,0.2-1,0.3l-2,0.2
	L180.5,182.1z M176.2,188.5l-0.3-6.1l3.9-0.2l0.1,1.1l-2.8,0.1l0.1,1.4l2.6-0.1v1l-2.6,0.1l0.1,1.7l2.9-0.1v1L176.2,188.5z
	 M174.2,186.3l1,0.3c-0.1,0.6-0.3,1.1-0.7,1.5c-0.4,0.3-0.8,0.5-1.3,0.5c-0.6,0-1.3-0.2-1.7-0.7c-0.5-0.7-0.8-1.5-0.8-2.3
	c-0.1-0.9,0.1-1.8,0.7-2.5c0.4-0.5,1-0.8,1.7-0.8c0.5,0,1.1,0.2,1.5,0.5c0.3,0.3,0.6,0.7,0.7,1.2l-1,0.3c-0.1-0.3-0.2-0.6-0.4-0.8
	c-0.2-0.2-0.5-0.3-0.7-0.2c-0.4,0-0.7,0.2-0.9,0.5c-0.3,0.5-0.4,1.1-0.3,1.6c0,0.6,0.1,1.1,0.4,1.6c0.2,0.3,0.6,0.5,1,0.5
	c0.3,0,0.5-0.1,0.7-0.3C174.1,187.1,174.2,186.7,174.2,186.3L174.2,186.3z M166.2,185.6c0,0.6,0.1,1.1,0.4,1.6
	c0.2,0.3,0.6,0.5,1,0.5c0.4,0,0.8-0.2,1-0.5c0.3-0.5,0.5-1,0.4-1.6c0-0.6-0.1-1.1-0.4-1.6c-0.2-0.3-0.6-0.5-1-0.5
	c-0.4,0-0.8,0.2-1,0.5C166.3,184.5,166.1,185.1,166.2,185.6L166.2,185.6z M165.1,185.6c0-0.6,0.1-1.2,0.3-1.8
	c0.4-0.9,1.2-1.5,2.2-1.4c0.7,0,1.4,0.3,1.8,0.8c0.5,0.7,0.8,1.5,0.7,2.4c0.1,0.9-0.2,1.7-0.8,2.4c-0.4,0.5-1.1,0.8-1.8,0.8
	c-0.7,0-1.3-0.2-1.8-0.8C165.3,187.4,165.1,186.5,165.1,185.6L165.1,185.6z M161.1,185.1h0.8c0.3,0,0.6,0,0.9,0
	c0.1,0,0.3-0.1,0.3-0.2c0.1-0.1,0.1-0.3,0.1-0.5c0-0.2,0-0.3-0.1-0.5c-0.1-0.1-0.2-0.2-0.3-0.2c-0.3-0.1-0.6-0.1-0.9-0.1h-0.8
	L161.1,185.1z M160,188.7l0.1-6.1h2.2c0.4,0,0.8,0.1,1.2,0.2c0.3,0.1,0.5,0.3,0.6,0.6c0.2,0.3,0.2,0.7,0.2,1c0,0.4-0.1,0.8-0.4,1.2
	c-0.3,0.3-0.6,0.5-1,0.5c0.2,0.1,0.4,0.3,0.6,0.5c0.2,0.3,0.4,0.7,0.6,1l0.6,1.2h-1.3l-0.7-1.3c-0.2-0.3-0.3-0.6-0.5-0.9
	c-0.1-0.1-0.2-0.2-0.3-0.3c-0.2-0.1-0.3-0.1-0.5-0.1h-0.2v2.6L160,188.7z M156.4,183.5l-0.1,1.7h0.6c0.3,0,0.5,0,0.8-0.1
	c0.1-0.1,0.3-0.1,0.4-0.3c0.1-0.1,0.2-0.3,0.2-0.5c0-0.2,0-0.4-0.1-0.5c-0.1-0.1-0.2-0.2-0.3-0.3c-0.3-0.1-0.6-0.1-0.9-0.1
	L156.4,183.5z M155.2,188.6l0.2-6.1l1.7,0.1c0.4,0,0.8,0,1.2,0.1c0.3,0.1,0.6,0.3,0.8,0.6c0.2,0.4,0.3,0.8,0.3,1.2
	c0,0.4-0.1,0.8-0.3,1.1c-0.2,0.3-0.4,0.5-0.7,0.6c-0.4,0.1-0.9,0.2-1.3,0.1h-0.7l-0.1,2.2H155.2z M151.1,188.3l0.4-6.1l1,0.1
	l-0.4,6.1L151.1,188.3z M147.2,184.4l0.8,0.1c0.3,0,0.6,0,0.9,0c0.1,0,0.2-0.1,0.3-0.2c0.2-0.3,0.2-0.7,0.1-1
	c-0.1-0.1-0.2-0.2-0.3-0.3c-0.3-0.1-0.6-0.1-0.8-0.1l-0.8-0.1L147.2,184.4z M145.9,187.9l0.6-6.1l2.2,0.2c0.4,0,0.8,0.1,1.2,0.3
	c0.2,0.1,0.4,0.4,0.6,0.6c0.1,0.3,0.2,0.7,0.1,1c0,0.4-0.2,0.8-0.5,1.1c-0.3,0.3-0.7,0.4-1.1,0.5c0.2,0.2,0.4,0.3,0.5,0.6
	c0.2,0.3,0.4,0.7,0.5,1l0.5,1.2l-1.2-0.1l-0.6-1.4c-0.1-0.3-0.3-0.6-0.5-0.9c-0.1-0.1-0.2-0.2-0.3-0.3c-0.2-0.1-0.3-0.1-0.5-0.1
	h-0.2l-0.2,2.6L145.9,187.9z M142.9,185.3l0.1-1l2.3,0.2l-0.3,2.4c-0.3,0.3-0.6,0.5-1,0.6c-0.4,0.1-0.9,0.2-1.3,0.1
	c-0.5,0-0.9-0.2-1.3-0.5c-0.4-0.3-0.7-0.7-0.8-1.2c-0.3-1.1-0.2-2.4,0.4-3.4c0.2-0.4,0.6-0.8,1-1c0.4-0.2,0.9-0.3,1.4-0.2
	c0.5,0,1,0.2,1.4,0.6c0.3,0.4,0.5,0.9,0.5,1.4l-1.1,0.1c0-0.3-0.2-0.6-0.4-0.8c-0.2-0.2-0.4-0.3-0.7-0.3c-0.4-0.1-0.8,0.1-1.1,0.4
	c-0.4,0.4-0.6,0.9-0.6,1.5c-0.1,0.6,0,1.2,0.3,1.7c0.2,0.4,0.6,0.6,1,0.6c0.2,0,0.4,0,0.6-0.1c0.2-0.1,0.4-0.2,0.6-0.3l0.1-0.8
	L142.9,185.3z M135.4,186.6l0.8-6.1l3.9,0.5l-0.1,1l-2.8-0.3l-0.2,1.4l2.6,0.3l-0.1,1l-2.6-0.3l-0.3,1.8l2.9,0.3l-0.1,1L135.4,186.6
	z M132.1,186.1l0.7-5l-1.6-0.3l0.2-1l4.1,0.6l-0.2,1l-1.5-0.2l-0.7,5.1L132.1,186.1z M125.8,185l1.1-6.1l1,0.2l1.3,4.4l0.7-4l1,0.2
	l-1.1,6l-1-0.2l-1.4-4.3l-0.7,3.9L125.8,185z M123.8,184.6l1.2-6l1,0.2l-1.2,6L123.8,184.6z"/>
<path class="st0" d="M96.5,164.5c-0.3-4.1,8.5-6.4,15.7-2.2c8.5,7.1-8.4,8.9-11.5,3.7c-0.9-1.9,0.7-2.3,2.1-1.3
	c2.6,1.7,8.8,2.3,8.2-0.3c-1.8-2.3-8.7-2.2-9.9-1.5c-8.9,4.4,9,10.1,13.3,7.4c10.9-3.8,15.4-1.5,15.3-1.1c0.1,1.7-1.2,1.6-4.3,1.4
	c-2.8-0.2-5.6,0.3-8.1,1.5c0,3.4-0.3,7.5-0.3,10.9c-7.2,0.4-13.5-0.6-19-4.5C97.8,174.3,96.1,165.7,96.5,164.5z"/>
<path class="st1" d="M121.1,173.5c2.8-0.3,5.6-0.2,8.3,0.2c0,1.1-0.1,1.5-0.2,2.6C126.2,176,122.6,175.1,121.1,173.5z"/>
<path class="st2" d="M219.8,30.2H108.6v104.2c0,34.7,31.1,22,55.6,36.1c28.3-17.3,55.6,1.1,55.6-36.1V30.2z"/>
<rect x="108.5" y="82.5" class="st3" width="111.2" height="1.9"/>
<path class="st0" d="M199.6,33l-0.5,1l-0.3,0.6l-0.4,0.7l0.4,0.7l-0.8,0.7c-0.2,0.1,0.4,0.4,0.2,0.6l-0.4,0.6
	c-1.8,2.4-0.6,6.2,0.6,11.4c-0.8,1.4-5.3-0.5-7.2-2.7c-0.5,2.2,2.3,8.5,5.4,9.3l0.5,1.5c-3.3,0.8-8.9-3.4-9.4-3.8
	c-0.3,5.6,3.9,9.6,7.9,11.5c0.4,0.2,0.2,1.7,0.6,2c-3.9,0.9-7.5-2.7-10.7-4.6c0.1,4,2.2,7.8,5.6,9.9l1.9,0.1l-0.4,1l1.4-0.3l0.2,1.4
	l1.1-0.8l0.6,1.1l0.5,0.9c0.8,1.8,0.5,4.5,0.8,7h6.8c-0.4-3.9-0.5-3.9,0.7-9.6c4.2-1.8,8.3-5.5,8.2-10.6c-2.4,1.9-6.8,4.1-10,3.8
	l0.5-1.7c0.6-0.8,6.9-0.1,9-11.5c-2.4,2.5-5.8,3.8-9.2,3.8c-0.2-0.3,0.1-0.5,0.1-1c2-2.3,4.4-2.6,4.7-9.5c-2.2,1.7-5.5,3.5-7.3,2.8
	c2.8-6.5,2.4-8.7,0.9-11.5c-0.1-0.2-0.8-0.3-0.8-0.6l0.1-0.6l-0.8-1l0.1-0.8C200.5,34.4,199.7,33.7,199.6,33z"/>
<path class="st0" d="M124.1,119.8c1.7,1.3,3.9,2.6,5.6,3.9c6-1.2,28.1-6.9,31.2,6.9c-0.9,13-10.9,13.8-15.9,11
	c-3.9-3.7-5.4-10.3,1.3-13c5.8-1.4,7.2,3.9,4.8,4.9c-5.6,2.2,1.4,6.7,4.2,0.1c1.8-11-18.3-11.7-17,2.5c0.9,9.8,12.3,12.5,18.9,8.3
	c11.4-7.6,7-19.9,0.2-24.6C143.7,119.6,137.7,119.9,124.1,119.8z M124.1,119.8c1.7-1.3,3.9-2.6,5.6-3.9c6,1.2,28.1,6.9,31.2-6.9
	C159.9,96,150,95.2,145,98c-3.9,3.7-5.4,10.3,1.3,13c5.8,1.4,7.2-3.9,4.8-4.9c-5.6-2.2,1.4-6.7,4.2-0.1c1.8,11-18.3,11.7-17-2.5
	c0.9-9.9,12.3-12.5,18.9-8.3c11.4,7.6,7,19.6,0.2,24.3L124.1,119.8z M164.2,117.7c1.2,0,2.1,0.9,2.1,2.1s-0.9,2.1-2.1,2.1
	s-2.1-0.9-2.1-2.1C162.1,118.7,163,117.7,164.2,117.7z M204.2,119.8c-1.7-1.3-3.9-2.6-5.6-3.9c-6,1.2-28.1,6.9-31.2-6.9
	c0.9-13,10.9-13.8,15.9-11c3.8,3.7,5.4,10.3-1.3,13c-5.8,1.4-7.2-3.9-4.8-4.9c5.6-2.2-1.5-6.7-4.2-0.1c-1.8,11,18.3,11.7,17-2.5
	c-0.9-9.9-12.3-12.5-18.9-8.3c-11.4,7.6-7,19.9-0.2,24.6C184.6,120.1,190.7,119.8,204.2,119.8z M204.2,119.8
	c-1.7,1.3-3.9,2.6-5.6,3.9c-6-1.2-28.1-6.9-31.2,6.9c0.9,13,10.9,13.8,15.9,11c3.8-3.7,5.4-10.3-1.3-13c-5.8-1.4-7.2,3.9-4.8,4.9
	c5.6,2.2-1.5,6.7-4.2,0.1c-1.8-11,18.3-11.7,17,2.5c-0.9,9.8-12.3,12.5-18.9,8.3c-11.4-7.6-7-19.6-0.2-24.3
	C184.6,119.9,190.7,119.9,204.2,119.8z"/>
<path class="st4" d="M124.1,119.8c1.7,1.3,3.9,2.6,5.6,3.9c6-1.2,28.1-6.9,31.2,6.9c-0.9,13-10.9,13.8-15.9,11
	c-3.9-3.7-5.4-10.3,1.3-13c5.8-1.4,7.2,3.9,4.8,4.9c-5.6,2.2,1.4,6.7,4.2,0.1c1.8-11-18.3-11.7-17,2.5c0.9,9.8,12.3,12.5,18.9,8.3
	c11.4-7.6,7-19.9,0.2-24.6C143.7,119.6,137.7,119.9,124.1,119.8z M124.1,119.8c1.7-1.3,3.9-2.6,5.6-3.9c6,1.2,28.1,6.9,31.2-6.9
	C159.9,96,150,95.2,145,98c-3.9,3.7-5.4,10.3,1.3,13c5.8,1.4,7.2-3.9,4.8-4.9c-5.6-2.2,1.4-6.7,4.2-0.1c1.8,11-18.3,11.7-17-2.5
	c0.9-9.9,12.3-12.5,18.9-8.3c11.4,7.6,7,19.6,0.2,24.3L124.1,119.8 M164.2,117.7c1.2,0,2.1,0.9,2.1,2.1s-0.9,2.1-2.1,2.1
	s-2.1-0.9-2.1-2.1C162.1,118.7,163,117.7,164.2,117.7z M204.2,119.8c-1.7-1.3-3.9-2.6-5.6-3.9c-6,1.2-28.1,6.9-31.2-6.9
	c0.9-13,10.9-13.8,15.9-11c3.8,3.7,5.4,10.3-1.3,13c-5.8,1.4-7.2-3.9-4.8-4.9c5.6-2.2-1.5-6.7-4.2-0.1c-1.8,11,18.3,11.7,17-2.5
	c-0.9-9.9-12.3-12.5-18.9-8.3c-11.4,7.6-7,19.9-0.2,24.6C184.6,120.1,190.7,119.8,204.2,119.8z M204.2,119.8
	c-1.7,1.3-3.9,2.6-5.6,3.9c-6-1.2-28.1-6.9-31.2,6.9c0.9,13,10.9,13.8,15.9,11c3.8-3.7,5.4-10.3-1.3-13c-5.8-1.4-7.2,3.9-4.8,4.9
	c5.6,2.2-1.5,6.7-4.2,0.1c-1.8-11,18.3-11.7,17,2.5c-0.9,9.8-12.3,12.5-18.9,8.3c-11.4-7.6-7-19.6-0.2-24.3
	C184.6,120.1,190.6,120,204.2,119.8"/>
<path class="st0" d="M164.7,33l-0.5,1l-0.3,0.6l-0.4,0.7l0.4,0.7l-0.8,0.6c-0.2,0.1,0.4,0.4,0.2,0.6l-0.4,0.6
	c-1.8,2.4-0.6,6.2,0.7,11.4c-0.8,1.4-5.3-0.5-7.2-2.7c-0.5,2.2,2.2,8.5,5.4,9.3l0.5,1.5c-3.3,0.8-8.9-3.4-9.4-3.8
	c-0.3,5.6,3.9,9.6,7.9,11.5c0.4,0.2,0.2,1.7,0.5,2c-3.9,0.9-7.5-2.7-10.7-4.6c0.1,4,2.2,7.8,5.6,9.9l1.9,0.1l-0.4,1l1.3-0.3l0.1,1.4
	l1.1-0.8l0.6,1.1l0.5,0.9c0.8,1.8,0.5,4.5,0.8,7h6.7c-0.4-3.9-0.5-3.9,0.7-9.6c4.2-1.8,8.3-5.5,8.2-10.6c-2.4,1.9-6.8,4.1-10,3.8
	l0.5-1.7c0.6-0.8,6.9-0.1,9-11.5c-2.4,2.5-5.7,3.8-9.2,3.8c-0.2-0.3,0.1-0.5,0.1-1c2.1-2.3,4.4-2.6,4.7-9.5
	c-2.2,1.7-5.5,3.5-7.3,2.8c2.8-6.5,2.4-8.7,0.9-11.5c-0.1-0.2-0.8-0.3-0.8-0.6l0.1-0.6l-0.8-1l0.1-0.8
	C165.7,34.4,164.9,33.7,164.7,33z"/>
<path class="st0" d="M128.8,33l-0.5,1l-0.3,0.6l-0.4,0.7l0.4,0.7l-0.8,0.6c-0.2,0.1,0.4,0.4,0.2,0.6l-0.4,0.6
	c-1.8,2.4-0.6,6.2,0.6,11.4c-0.8,1.4-5.3-0.5-7.2-2.7c-0.5,2.2,2.3,8.5,5.4,9.3l0.5,1.5c-3.3,0.8-8.9-3.4-9.3-3.8
	c-0.3,5.6,3.9,9.6,7.9,11.5c0.4,0.2,0.2,1.7,0.6,2c-3.9,0.9-7.5-2.7-10.7-4.6c0.1,4,2.2,7.8,5.6,9.9l1.9,0.1l-0.4,1l1.3-0.3l0.2,1.4
	l1.1-0.8l0.6,1.1l0.5,0.9c0.8,1.8,0.5,4.5,0.8,7h6.8c-0.4-3.9-0.5-3.9,0.7-9.6c4.3-1.7,8.3-5.5,8.2-10.5c-2.4,1.9-6.8,4.1-10,3.8
	l0.5-1.7c0.6-0.8,6.9-0.1,9-11.5c-2.4,2.5-5.8,3.8-9.2,3.8c-0.2-0.3,0.1-0.5,0.1-1c2.1-2.3,4.4-2.6,4.7-9.5
	c-2.2,1.7-5.5,3.5-7.3,2.8c2.8-6.5,2.4-8.7,0.9-11.5c-0.1-0.2-0.8-0.4-0.8-0.6l0.1-0.6l-0.8-1l0.1-0.8
	C129.7,34.4,128.9,33.7,128.8,33z"/>
<rect x="108.6" y="82.3" class="st5" width="111.1" height="2.1"/>
<path class="st6" d="M92.7,217v6.2c0.1,1.1-0.3,2.2-1.1,3c-0.9,0.7-2.1,1.1-3.2,1c-1.2,0.1-2.3-0.3-3.3-1c-0.8-0.8-1.1-1.9-1.1-3
	V217h2.1v5.9c0,0.7,0.1,1.3,0.6,1.9c0.4,0.4,1,0.7,1.6,0.6c0.6,0,1.2-0.2,1.6-0.6c0.4-0.5,0.6-1.2,0.5-1.9V217H92.7z"/>
<path class="st6" d="M95,227v-10h2.2l4.4,5.8c0.2,0.2,0.3,0.4,0.4,0.7c0.2,0.3,0.3,0.6,0.5,1.1c0-0.3-0.1-0.6-0.1-0.9s0-0.6,0-1.1
	V217h2v10h-2.1l-4.5-5.9c-0.2-0.2-0.3-0.4-0.4-0.7c-0.2-0.3-0.3-0.6-0.5-1.1c0,0.3,0.1,0.6,0.1,0.9s0,0.7,0,1.1v5.7H95z"/>
<rect x="106.8" y="217" class="st6" width="2.1" height="10"/>
<path class="st6" d="M113.8,227l-3.7-10h2.3l1.9,6.2c0,0.1,0.1,0.4,0.2,0.7s0.2,0.7,0.2,1.2c0-0.4,0.1-0.8,0.2-1.1
	c0.1-0.3,0.1-0.6,0.2-0.8l2-6.2h2.3l-3.7,10L113.8,227z"/>
<polygon class="st6" points="120.7,227 120.7,217 126.6,217 126.6,218.8 122.8,218.8 122.8,220.9 126.6,220.9 126.6,222.7 
	122.8,222.7 122.8,225.2 126.6,225.2 126.6,227 "/>
<path class="st6" d="M130.9,221.3h0.3c0.6,0.1,1.2,0,1.7-0.3c0.3-0.2,0.5-0.6,0.4-1c0-0.4-0.1-0.8-0.4-1.1c-0.5-0.2-1.1-0.3-1.7-0.2
	h-0.3L130.9,221.3z M136,227h-2.5l-2.6-4.6v4.6h-2.1v-10h3c1-0.1,1.9,0.2,2.7,0.7c0.6,0.5,1,1.3,0.9,2.1c0,0.6-0.2,1.3-0.6,1.8
	c-0.4,0.5-1,0.8-1.6,0.9L136,227z"/>
<path class="st6" d="M136.7,225.7l1.2-1.3c0.1,0.4,0.4,0.7,0.7,0.9c0.3,0.2,0.7,0.3,1.1,0.3c0.4,0,0.8-0.1,1.2-0.4
	c0.3-0.2,0.5-0.6,0.4-0.9c0-0.5-0.5-0.9-1.4-1.4l-0.8-0.4c-0.7-0.3-1.3-0.8-1.8-1.3c-0.3-0.4-0.5-1-0.5-1.5c0-0.8,0.4-1.5,1-2
	c0.7-0.6,1.6-0.8,2.6-0.8c0.5,0,1.1,0.1,1.6,0.3c0.5,0.2,0.9,0.6,1.2,1l-1.2,1.2c-0.1-0.3-0.3-0.5-0.6-0.6c-0.6-0.3-1.3-0.3-1.9,0.1
	c-0.3,0.2-0.4,0.5-0.4,0.8c0,0.5,0.5,1,1.5,1.4l0.5,0.2c0.7,0.3,1.4,0.7,1.9,1.3c0.4,0.5,0.6,1.1,0.6,1.7c0,0.9-0.3,1.7-1,2.2
	c-0.7,0.6-1.6,0.9-2.6,0.8c-0.7,0-1.3-0.1-1.9-0.4C137.4,226.7,137,226.2,136.7,225.7z"/>
<rect x="145.3" y="217" class="st6" width="2.1" height="10"/>
<polygon class="st6" points="153.5,218.9 153.5,227 151.4,227 151.4,218.9 149,218.9 149,217 156,217 156,218.9 "/>
<path class="st6" d="M159.5,227v-4.5l-3.4-5.4h2.5l1.5,2.7l0.2,0.5c0.1,0.2,0.2,0.5,0.2,0.7c0.1-0.2,0.1-0.4,0.2-0.7
	c0.1-0.2,0.2-0.4,0.3-0.6l1.5-2.7h2.5l-3.4,5.4v4.5H159.5z"/>
<path class="st6" d="M173.8,225.4c0.9,0,1.7-0.3,2.2-0.9c0.6-0.7,0.9-1.5,0.9-2.4c0-0.9-0.3-1.7-0.9-2.4c-1.2-1.2-3.1-1.3-4.3-0.1
	c0,0-0.1,0.1-0.1,0.1c-1.2,1.4-1.2,3.4,0,4.8C172.1,225,173,225.4,173.8,225.4z M179.1,222c0,0.7-0.1,1.4-0.4,2
	c-0.3,0.6-0.7,1.2-1.2,1.7c-1.5,1.4-3.6,1.9-5.5,1.2c-0.6-0.2-1.1-0.5-1.6-0.9c-1.2-1-1.9-2.4-1.9-4c0-0.7,0.1-1.4,0.4-2
	c0.3-0.6,0.7-1.2,1.2-1.7c0.5-0.5,1.1-0.9,1.8-1.1c1.3-0.5,2.8-0.5,4.1,0c0.6,0.3,1.2,0.6,1.7,1.1c0.5,0.5,0.9,1.1,1.2,1.7
	C179,220.7,179.1,221.4,179.1,222z"/>
<polygon class="st6" points="181,227 181,217 186.9,217 186.9,218.8 183.2,218.8 183.2,220.9 186.9,220.9 186.9,222.7 183.2,222.7 
	183.2,227 "/>
<path class="st6" d="M196.5,221.7h4.6c0,0.1,0,0.1,0,0.2v0.3c0.1,1.3-0.4,2.6-1.3,3.6c-0.8,0.9-2,1.4-3.3,1.4
	c-1.4,0-2.8-0.5-3.8-1.5c-2-2.1-2-5.4,0-7.5c1-1,2.4-1.5,3.8-1.5c0.8,0,1.6,0.2,2.2,0.5c0.7,0.4,1.3,0.9,1.8,1.5l-1.4,1.1
	c-0.3-0.4-0.7-0.8-1.1-1c-0.4-0.2-0.9-0.3-1.4-0.3c-0.9,0-1.7,0.3-2.4,0.9c-1.2,1.4-1.2,3.5,0,4.9c0.6,0.6,1.4,1,2.3,0.9
	c0.6,0,1.2-0.1,1.7-0.5c0.4-0.3,0.7-0.8,0.7-1.3v-0.1h-2.4L196.5,221.7z"/>
<polygon class="st6" points="202.9,227 202.9,217 205,217 205,221 209.3,221 209.3,217 211.4,217 211.4,227 209.3,227 209.3,222.8 
	205,222.8 205,227 "/>
<path class="st6" d="M212.6,227l3.8-10h2.4l3.8,10h-2.4l-0.8-2.1h-3.9l-0.7,2.1H212.6z M218.9,223.2l-1.1-3.2c0-0.1-0.1-0.3-0.1-0.5
	l-0.1-0.9c-0.1,0.3-0.1,0.6-0.2,0.9s-0.1,0.4-0.1,0.5l-1.1,3.2L218.9,223.2z"/>
<path class="st6" d="M223.8,227v-10h2.2l4.4,5.8c0.2,0.2,0.3,0.4,0.4,0.7c0.1,0.3,0.3,0.6,0.5,1.1c0-0.3-0.1-0.6-0.1-0.9
	s0-0.6,0-1.1V217h2v10h-2.1l-4.5-5.9c-0.2-0.2-0.3-0.4-0.4-0.7c-0.1-0.3-0.3-0.6-0.5-1.1c0.1,0.3,0.1,0.6,0.1,0.9c0,0.3,0,0.7,0,1.1
	v5.7H223.8z"/>
<path class="st6" d="M234.4,227l3.8-10h2.4l3.8,10H242l-0.8-2.1h-3.9l-0.7,2.1H234.4z M240.7,223.2l-1.1-3.2c0-0.1-0.1-0.3-0.1-0.5
	l-0.1-0.9c-0.1,0.3-0.1,0.6-0.2,0.9s-0.1,0.4-0.1,0.5l-1.1,3.2L240.7,223.2z"/>
</svg>
